<?xml version="1.0" standalone="yes"?><svg xmlns="http://www.w3.org/2000/svg" id="mdi-gitlab" viewBox="0 0 24 24" style="zoom: 1;"><path d="M21.940001,13.11 L20.889999,9.89 C20.889999,9.86 20.879999,9.83 20.870001,9.8 L18.76,3.32 C18.65,3 18.33,2.75 17.959999,2.75 C17.6,2.75 17.280001,3 17.17,3.33 L15.17,9.5 H8.84 L6.83,3.33 C6.72,3 6.4,2.75 6.04,2.75 H6.04 C5.67,2.75 5.35,3 5.24,3.33 L3.13,9.82 C3.13,9.82 3.13,9.83 3.13,9.83 L2.06,13.11 C1.9,13.61 2.07,14.15 2.5,14.45 L11.72,21.16 C11.89,21.280001 12.11,21.280001 12.28,21.15 L21.5,14.45 C21.93,14.15 22.1,13.61 21.940001,13.11 M8.15,10.45 L10.72,18.360001 L4.55,10.45 M13.28,18.370001 L15.75,10.78 L15.85,10.45 H19.459999 L13.87,17.610001 M17.969999,3.94 L19.780001,9.5 H16.16 M14.86,10.45 L13.07,15.96 L12,19.24 L9.14,10.45 M6.03,3.94 L7.84,9.5 H4.23 M3.05,13.69 C2.96,13.62 2.92,13.5 2.96,13.4 L3.75,10.97 L9.57,18.42 M20.950001,13.69 L14.44,18.42 L14.46,18.389999 L20.25,10.97 L21.040001,13.4 C21.08,13.5 21.040001,13.62 20.950001,13.69 "></path></svg>